<svg width="24.000000" height="24.000000" viewBox="0 0 24 24" fill="none" xmlns="http://www.w3.org/2000/svg" xmlns:xlink="http://www.w3.org/1999/xlink">
	<desc>
			Created with Pixso.
	</desc>
	<defs/>
	<path id="Vector" d="M22.66 0L1.33 0C0.97 0 0.64 0.14 0.39 0.39C0.14 0.64 0 0.97 0 1.33L0 22.66C0 23.02 0.14 23.35 0.39 23.6C0.64 23.85 0.97 24 1.33 24L12.82 24L12.82 14.72L9.7 14.72L9.7 11.08L12.82 11.08L12.82 8.42C12.82 5.32 14.71 3.63 17.48 3.63C18.41 3.62 19.35 3.67 20.28 3.77L20.28 7L18.36 7C16.86 7 16.56 7.71 16.56 8.76L16.56 11.08L20.16 11.08L19.69 14.71L16.56 14.71L16.56 24L22.66 24C23.02 24 23.35 23.85 23.6 23.6C23.85 23.35 24 23.02 24 22.66L24 1.33C24 0.97 23.85 0.64 23.6 0.39C23.35 0.14 23.02 0 22.66 0Z" fill="#F8F8F8" fill-opacity="1.000000" fill-rule="nonzero"/>
</svg>
