<svg width="32.000000" height="32.000000" viewBox="0 0 32 32" fill="none" xmlns="http://www.w3.org/2000/svg" xmlns:xlink="http://www.w3.org/1999/xlink">
	<desc>
			Created with Pixso.
	</desc>
	<defs/>
	<rect id="akar-icons:instagram-fill" rx="-0.500000" width="31.000000" height="31.000000" transform="translate(0.500000 0.500000)" fill="#FFFFFF" fill-opacity="0"/>
	<path id="Vector" d="M9.95 1.42C11.51 1.34 12.01 1.33 16 1.33C19.98 1.33 20.48 1.35 22.04 1.42C23.6 1.49 24.67 1.74 25.6 2.1C26.58 2.47 27.47 3.04 28.2 3.79C28.95 4.52 29.52 5.41 29.89 6.39C30.25 7.32 30.5 8.39 30.57 9.95C30.65 11.51 30.66 12.01 30.66 16C30.66 19.98 30.64 20.48 30.57 22.04C30.5 23.6 30.25 24.67 29.89 25.6C29.52 26.58 28.95 27.47 28.2 28.2C27.47 28.95 26.58 29.52 25.6 29.89C24.67 30.25 23.6 30.5 22.04 30.57C20.48 30.65 19.98 30.66 16 30.66C12.01 30.66 11.51 30.64 9.95 30.57C8.39 30.5 7.32 30.25 6.39 29.89C5.41 29.52 4.52 28.95 3.79 28.2C3.04 27.47 2.47 26.58 2.1 25.6C1.74 24.67 1.49 23.6 1.42 22.04C1.34 20.48 1.33 19.98 1.33 16C1.33 12.01 1.35 11.51 1.42 9.95C1.49 8.39 1.74 7.32 2.1 6.39C2.47 5.41 3.04 4.52 3.79 3.79C4.52 3.04 5.41 2.47 6.39 2.1C7.32 1.74 8.39 1.49 9.95 1.42L9.95 1.42ZM21.92 4.06C20.37 3.99 19.91 3.97 16 3.97C12.08 3.97 11.62 3.99 10.07 4.06C8.64 4.12 7.86 4.36 7.34 4.56C6.66 4.83 6.17 5.14 5.66 5.66C5.17 6.13 4.8 6.71 4.56 7.34C4.36 7.86 4.12 8.64 4.06 10.07C3.99 11.62 3.97 12.08 3.97 16C3.97 19.91 3.99 20.37 4.06 21.92C4.12 23.35 4.36 24.13 4.56 24.65C4.8 25.28 5.17 25.86 5.66 26.33C6.13 26.82 6.71 27.19 7.34 27.43C7.86 27.63 8.64 27.87 10.07 27.93C11.62 28 12.08 28.02 16 28.02C19.91 28.02 20.37 28 21.92 27.93C23.35 27.87 24.13 27.63 24.65 27.43C25.33 27.16 25.82 26.85 26.33 26.33C26.82 25.86 27.19 25.28 27.43 24.65C27.63 24.13 27.87 23.35 27.93 21.92C28 20.37 28.02 19.91 28.02 16C28.02 12.08 28 11.62 27.93 10.07C27.87 8.64 27.63 7.86 27.43 7.34C27.16 6.66 26.85 6.17 26.33 5.66C25.86 5.17 25.28 4.8 24.65 4.56C24.13 4.36 23.35 4.12 21.92 4.06ZM14.12 20.52C15.17 20.95 16.33 21.01 17.42 20.68C18.5 20.35 19.44 19.66 20.07 18.72C20.7 17.78 20.98 16.64 20.87 15.52C20.76 14.39 20.26 13.34 19.45 12.54C18.94 12.02 18.32 11.63 17.64 11.39C16.96 11.15 16.24 11.06 15.52 11.13C14.8 11.2 14.1 11.43 13.48 11.8C12.86 12.17 12.33 12.68 11.93 13.28C11.53 13.88 11.26 14.56 11.16 15.28C11.05 15.99 11.1 16.72 11.31 17.42C11.52 18.11 11.88 18.75 12.37 19.28C12.85 19.82 13.45 20.24 14.12 20.52ZM10.66 10.66C11.36 9.96 12.2 9.41 13.11 9.03C14.02 8.65 15.01 8.46 16 8.46C16.99 8.46 17.97 8.65 18.88 9.03C19.79 9.41 20.63 9.96 21.33 10.66C22.03 11.36 22.58 12.2 22.96 13.11C23.34 14.02 23.53 15.01 23.53 16C23.53 16.99 23.34 17.97 22.96 18.88C22.58 19.79 22.03 20.63 21.33 21.33C19.91 22.74 17.99 23.53 16 23.53C14 23.53 12.08 22.74 10.66 21.33C9.25 19.91 8.46 17.99 8.46 16C8.46 14 9.25 12.08 10.66 10.66ZM25.21 9.58C25.38 9.42 25.52 9.22 25.61 9C25.71 8.78 25.76 8.55 25.76 8.31C25.77 8.07 25.72 7.83 25.63 7.61C25.54 7.39 25.41 7.19 25.24 7.02C25.07 6.85 24.87 6.72 24.65 6.63C24.43 6.54 24.19 6.5 23.96 6.5C23.72 6.5 23.48 6.55 23.26 6.65C23.05 6.75 22.85 6.89 22.69 7.06C22.37 7.4 22.19 7.84 22.2 8.31C22.21 8.77 22.39 9.21 22.72 9.54C23.05 9.87 23.49 10.06 23.96 10.06C24.42 10.07 24.87 9.9 25.21 9.58Z" fill="#F8F8F8" fill-opacity="1.000000" fill-rule="evenodd"/>
</svg>
