<svg width="30.274658" height="24.611359" viewBox="0 0 30.2747 24.6114" fill="none" xmlns="http://www.w3.org/2000/svg" xmlns:xlink="http://www.w3.org/1999/xlink">
	<desc>
			Created with Pixso.
	</desc>
	<defs/>
	<path id="Vector" d="M30.27 2.91C29.16 3.41 27.96 3.74 26.7 3.89C28 3.12 28.97 1.89 29.43 0.45C28.21 1.18 26.88 1.69 25.49 1.96C24.55 0.96 23.32 0.3 21.96 0.08C20.61 -0.14 19.23 0.08 18.02 0.73C16.82 1.38 15.86 2.4 15.29 3.65C14.73 4.9 14.59 6.3 14.91 7.63C12.44 7.5 10.02 6.86 7.81 5.74C5.61 4.63 3.66 3.06 2.1 1.14C1.57 2.06 1.26 3.12 1.26 4.26C1.26 5.28 1.51 6.29 2 7.19C2.48 8.09 3.18 8.86 4.03 9.43C3.04 9.4 2.07 9.13 1.21 8.65L1.21 8.73C1.21 10.17 1.71 11.56 2.62 12.67C3.52 13.78 4.79 14.54 6.2 14.82C5.28 15.07 4.32 15.11 3.39 14.93C3.79 16.16 4.56 17.24 5.6 18.02C6.64 18.79 7.9 19.22 9.19 19.24C6.99 20.97 4.27 21.91 1.48 21.9C0.98 21.9 0.49 21.87 0 21.82C2.83 23.64 6.14 24.61 9.52 24.61C20.94 24.61 27.19 15.14 27.19 6.93C27.19 6.67 27.18 6.4 27.17 6.13C28.38 5.25 29.43 4.16 30.27 2.92L30.27 2.91Z" fill="#F8F8F8" fill-opacity="1.000000" fill-rule="nonzero"/>
</svg>
