<svg width="90.817383" height="30.234375" viewBox="0 0 90.8174 30.2344" fill="none" xmlns="http://www.w3.org/2000/svg" xmlns:xlink="http://www.w3.org/1999/xlink">
	<desc>
			Created with Pixso.
	</desc>
	<defs/>
	<path id="Travel" d="M88.57 25.25Q88.22 25.25 87.87 25.56Q87.56 25.84 87.21 26.06Q86.92 26.25 86.6 26.39Q85.91 26.71 85.37 26.71Q84.57 26.71 84.04 26.33Q83.91 26.24 83.8 26.14Q83.23 25.56 83.01 24.25Q86.62 19.35 88.72 14.33Q90.81 9.31 90.81 5.5Q90.81 2.84 89.93 1.42Q89.42 0.59 88.68 0.24Q88.15 0 87.52 0Q87.1 0 86.71 0.08Q84.5 0.54 82.83 3.58Q80.86 7.16 79.85 12.15Q78.84 17.14 78.84 21.05Q78.84 22.56 79.04 23.87Q78.48 24.47 77.84 24.98Q77.11 25.57 76.27 26.03Q74.43 27.03 72.99 27.03Q71.3 27.03 70.42 26.19Q70.14 25.92 69.95 25.56Q73.73 24.64 75.31 23.05Q76.15 22.21 76.54 21.19Q76.89 20.29 76.89 19.26Q76.89 17.77 76.19 16.77Q76 16.5 75.77 16.27Q75.51 16.01 75.21 15.81Q74.22 15.16 72.8 15.16Q71.52 15.16 70.4 15.59Q69.71 15.85 69.07 16.28Q68.63 16.58 68.25 16.93Q67.18 17.91 66.49 19.31Q66.23 19.84 66.04 20.4Q66 20.52 65.97 20.64Q64.42 20.94 63.42 20.99Q64.19 19.13 64.19 17.69Q64.19 16.44 63.61 15.78Q63.38 15.52 63.09 15.36Q62.67 15.13 62.11 15.13Q61.58 15.13 61.1 15.29Q60.64 15.45 60.22 15.77Q60.1 15.86 59.98 15.97Q59.32 16.56 58.91 17.43Q58.57 18.16 58.47 18.91Q58.43 19.22 58.43 19.54Q58.43 20.82 58.91 21.75Q57.95 23.45 56.03 26.3Q55.58 20.41 55.58 16.73Q55.58 15.86 55.18 15.5Q54.78 15.13 53.95 15.13Q52.86 15.13 52.31 15.55Q52.31 15.55 52.3 15.56Q51.77 15.98 51.74 17.02L51.74 18.14Q51.74 20.6 51.95 23.67Q50.65 25.21 49.85 25.93Q48.99 26.71 48.38 26.71Q48.18 26.71 48.02 26.64Q47.87 26.56 47.76 26.42Q47.75 26.41 47.74 26.4Q47.52 26.11 47.52 25.66Q47.52 24.21 48.25 20.53Q48.73 18.01 48.73 17.34Q48.73 16.96 48.55 16.7Q48.2 16.21 47.16 16.21Q46.43 16.21 45.76 16.35Q45.59 15.64 45.35 15.37Q45.12 15.1 44.41 15.1Q43.82 15.1 43.24 15.2Q41.67 15.47 40.23 16.49Q39.83 16.77 39.47 17.09Q38.02 18.34 37.08 20.17Q36.75 20.8 36.52 21.45Q35.78 21.98 35.23 21.98Q34.96 21.98 34.79 21.85Q34.43 21.6 34.43 20.85Q34.43 20.53 34.68 19.26Q34.97 17.66 34.97 17.25Q34.97 16.2 34.45 15.68Q33.93 15.16 32.89 15.16Q31.84 15.16 30.57 15.9Q29.31 16.64 28 18.36Q26.68 20.09 25.63 22.84Q25.76 21.43 25.95 20.47Q26.14 19.51 26.46 18.23Q26.94 16.44 26.94 15.93Q26.94 15.54 26.75 15.37Q26.72 15.34 26.68 15.32Q26.43 15.16 25.79 15.16Q24.6 15.16 23.95 15.6Q23.9 15.63 23.86 15.66Q23.27 16.09 23 16.96Q21.82 20.7 21.82 24.85Q21.82 27.67 22.32 28.96Q22.61 29.71 23.16 30.02Q23.54 30.23 24.03 30.23Q24.97 30.23 25.43 29.76Q25.46 29.73 25.48 29.71Q25.95 29.17 26.3 27.67Q26.78 25.72 27.55 23.96Q28.32 22.2 29.1 21.13Q29.89 20.06 30.36 20.06Q30.48 20.06 30.55 20.11Q30.71 20.22 30.71 20.57Q30.71 20.79 30.65 21.43Q30.56 21.92 30.56 22.39Q30.56 23.54 31.1 24.33Q31.24 24.54 31.43 24.73Q31.45 24.75 31.48 24.77Q32.36 25.6 34.01 25.6Q34.57 25.6 35.11 25.48Q35.51 25.4 35.9 25.25Q35.95 27.32 36.97 28.66Q37.03 28.73 37.08 28.79Q37.57 29.39 38.2 29.74Q39.09 30.23 40.25 30.23Q40.95 30.23 41.58 30.03Q43.24 29.49 44.45 27.54Q44.89 28.78 45.76 29.5Q45.77 29.5 45.77 29.51Q46.36 29.99 47.03 30.15Q47.36 30.23 47.71 30.23Q49.09 30.23 50.56 29.11Q51.49 28.41 52.36 27.49Q52.61 28.57 53.07 29.21Q53.42 29.68 53.88 29.93Q54.42 30.23 55.13 30.23Q55.85 30.23 56.47 29.98Q56.88 29.82 57.24 29.56Q58.17 28.89 59.45 27.07Q60.57 25.46 61.5 23.96Q62.75 24.35 64.16 24.35Q64.9 24.35 65.6 24.25Q65.77 26.28 66.8 27.69Q67.08 28.07 67.42 28.41Q67.59 28.58 67.78 28.74Q69.59 30.23 72.63 30.23Q73.85 30.23 74.99 29.93Q76.17 29.63 77.26 29.02Q78.88 28.11 79.94 27.08Q80.09 27.39 80.25 27.69Q80.9 28.85 81.88 29.48Q83.05 30.23 84.7 30.23Q85.65 30.23 86.51 29.95Q87.56 29.61 88.48 28.85Q88.86 28.54 89.09 28.13Q89.44 27.52 89.44 26.71Q89.44 26.1 89.2 25.67Q89.03 25.37 88.79 25.28Q88.68 25.25 88.57 25.25ZM27.28 4.19Q26.78 3.71 25.79 3.51Q24.22 3.22 22.12 3.1Q20.03 2.97 16.51 2.97Q10.82 2.97 7.18 3.74Q3.55 4.5 1.77 6.15Q1.2 6.68 0.81 7.32Q0 8.67 0 10.52Q0 11.8 0.41 12.81Q0.83 13.82 1.47 14.36Q1.57 14.45 1.67 14.51Q1.97 14.68 2.36 14.68Q2.48 14.68 2.6 14.67Q3.25 14.6 3.85 14.16Q4.51 13.68 4.57 13.13Q4.57 13.07 4.57 13.02Q4.57 12.89 4.54 12.78Q4.51 12.65 4.45 12.53Q3.96 11.78 3.85 10.98Q3.81 10.72 3.81 10.46Q3.81 9.66 4.15 9.05Q4.32 8.77 4.56 8.53Q5.31 7.77 7.1 7.35Q8.89 6.94 12.03 6.84Q11.87 7.61 11.74 8.24Q11.61 8.85 11.52 9.34Q11.07 11.48 10.62 13.89Q10.17 16.28 9.82 18.71Q9.63 20.15 9.28 22.1Q8.96 24.06 8.71 25.84Q8.48 27.61 8.48 28.38Q8.48 28.88 8.69 29.27Q8.83 29.52 9.05 29.72Q9.63 30.23 10.68 30.23Q11.56 30.23 12.21 29.85Q12.29 29.8 12.38 29.74Q12.66 29.54 12.84 29.27Q13.11 28.87 13.15 28.32Q13.28 26.55 13.66 23.69Q14.05 20.82 14.4 18.65Q15.39 12.7 16.57 6.81Q19.2 6.84 20.82 6.92Q22.43 7 25.31 7.22Q26.59 7.32 27.18 6.85Q27.25 6.79 27.31 6.73Q27.78 6.24 27.78 5.31Q27.78 5.06 27.7 4.84Q27.59 4.49 27.28 4.19ZM85.15 5.82Q86.08 3.16 86.81 3.16Q86.92 3.16 87.01 3.19Q87.71 3.45 87.71 5.6Q87.71 8.7 86.37 12.46Q85.02 16.21 82.75 19.96Q82.81 16.35 83.52 12.41Q84.22 8.47 85.15 5.82ZM41.5 27Q41.45 27 41.41 27Q40.94 27 40.61 26.79Q40.43 26.69 40.3 26.53Q39.9 26.04 39.9 25.05Q39.9 23.82 40.22 22.67Q40.36 22.16 40.57 21.66Q41.24 20.06 42.38 19.08Q43.22 18.36 44.17 18.15Q44.51 18.08 44.86 18.07L43.68 23.96Q43.39 25.34 42.75 26.17Q42.15 26.95 41.5 27ZM71.77 18.36Q72 18.3 72.25 18.3Q72.67 18.3 72.96 18.49Q73.07 18.57 73.17 18.67Q73.21 18.72 73.25 18.77Q73.5 19.12 73.5 19.64Q73.5 19.95 73.43 20.24Q73.22 21.06 72.41 21.72Q71.32 22.62 69.44 23.07L69.44 23Q69.44 21.05 70.25 19.67Q70.9 18.59 71.77 18.36Z" fill="#FFFFFF" fill-opacity="1.000000" fill-rule="evenodd"/>
</svg>
